<svg width="218" height="323" viewBox="0 0 218 323" fill="none" xmlns="http://www.w3.org/2000/svg">
<g filter="url(#filter0_b_918_417)">
<path d="M0 35C0 15.67 15.67 0 35 0H183C202.33 0 218 15.67 218 35V161.5V288C218 307.33 202.33 323 183 323H35C15.67 323 0 307.33 0 288V35Z" fill="#015B40"/>
</g>
<path d="M70.9284 42.9289V45.1889H67.2084V56.8889H64.4084V45.1889H60.6884V42.9289H70.9284ZM77.8913 57.0689C76.8247 57.0689 75.8647 56.8356 75.0113 56.3689C74.158 55.8889 73.4847 55.2156 72.9913 54.3489C72.5113 53.4822 72.2713 52.4822 72.2713 51.3489C72.2713 50.2156 72.518 49.2156 73.0113 48.3489C73.518 47.4822 74.2047 46.8156 75.0713 46.3489C75.938 45.8689 76.9047 45.6289 77.9713 45.6289C79.038 45.6289 80.0047 45.8689 80.8713 46.3489C81.738 46.8156 82.418 47.4822 82.9113 48.3489C83.418 49.2156 83.6713 50.2156 83.6713 51.3489C83.6713 52.4822 83.4113 53.4822 82.8913 54.3489C82.3847 55.2156 81.6913 55.8889 80.8113 56.3689C79.9447 56.8356 78.9713 57.0689 77.8913 57.0689ZM77.8913 54.6289C78.398 54.6289 78.8713 54.5089 79.3113 54.2689C79.7647 54.0156 80.1247 53.6422 80.3913 53.1489C80.658 52.6556 80.7913 52.0556 80.7913 51.3489C80.7913 50.2956 80.5113 49.4889 79.9513 48.9289C79.4047 48.3556 78.7313 48.0689 77.9313 48.0689C77.1313 48.0689 76.458 48.3556 75.9113 48.9289C75.378 49.4889 75.1113 50.2956 75.1113 51.3489C75.1113 52.4022 75.3713 53.2156 75.8913 53.7889C76.4247 54.3489 77.0913 54.6289 77.8913 54.6289ZM88.9853 48.1089V53.4689C88.9853 53.8422 89.0719 54.1156 89.2453 54.2889C89.4319 54.4489 89.7386 54.5289 90.1653 54.5289H91.4653V56.8889H89.7053C87.3453 56.8889 86.1653 55.7422 86.1653 53.4489V48.1089H84.8453V45.8089H86.1653V43.0689H88.9853V45.8089H91.4653V48.1089H88.9853ZM92.7592 51.3089C92.7592 50.1889 92.9792 49.1956 93.4192 48.3289C93.8725 47.4622 94.4792 46.7956 95.2392 46.3289C96.0125 45.8622 96.8725 45.6289 97.8192 45.6289C98.6458 45.6289 99.3658 45.7956 99.9792 46.1289C100.606 46.4622 101.106 46.8822 101.479 47.3889V45.8089H104.299V56.8889H101.479V55.2689C101.119 55.7889 100.619 56.2222 99.9792 56.5689C99.3525 56.9022 98.6258 57.0689 97.7992 57.0689C96.8658 57.0689 96.0125 56.8289 95.2392 56.3489C94.4792 55.8689 93.8725 55.1956 93.4192 54.3289C92.9792 53.4489 92.7592 52.4422 92.7592 51.3089ZM101.479 51.3489C101.479 50.6689 101.346 50.0889 101.079 49.6089C100.812 49.1156 100.452 48.7422 99.9992 48.4889C99.5458 48.2222 99.0592 48.0889 98.5392 48.0889C98.0192 48.0889 97.5392 48.2156 97.0992 48.4689C96.6592 48.7222 96.2992 49.0956 96.0192 49.5889C95.7525 50.0689 95.6192 50.6422 95.6192 51.3089C95.6192 51.9756 95.7525 52.5622 96.0192 53.0689C96.2992 53.5622 96.6592 53.9422 97.0992 54.2089C97.5525 54.4756 98.0325 54.6089 98.5392 54.6089C99.0592 54.6089 99.5458 54.4822 99.9992 54.2289C100.452 53.9622 100.812 53.5889 101.079 53.1089C101.346 52.6156 101.479 52.0289 101.479 51.3489ZM109.834 42.0889V56.8889H107.034V42.0889H109.834ZM116.646 51.3089C116.646 50.1889 116.866 49.1956 117.306 48.3289C117.759 47.4622 118.373 46.7956 119.146 46.3289C119.919 45.8622 120.779 45.6289 121.726 45.6289C122.446 45.6289 123.133 45.7889 123.786 46.1089C124.439 46.4156 124.959 46.8289 125.346 47.3489V42.0889H128.186V56.8889H125.346V55.2489C124.999 55.7956 124.513 56.2356 123.886 56.5689C123.259 56.9022 122.533 57.0689 121.706 57.0689C120.773 57.0689 119.919 56.8289 119.146 56.3489C118.373 55.8689 117.759 55.1956 117.306 54.3289C116.866 53.4489 116.646 52.4422 116.646 51.3089ZM125.366 51.3489C125.366 50.6689 125.233 50.0889 124.966 49.6089C124.699 49.1156 124.339 48.7422 123.886 48.4889C123.433 48.2222 122.946 48.0889 122.426 48.0889C121.906 48.0889 121.426 48.2156 120.986 48.4689C120.546 48.7222 120.186 49.0956 119.906 49.5889C119.639 50.0689 119.506 50.6422 119.506 51.3089C119.506 51.9756 119.639 52.5622 119.906 53.0689C120.186 53.5622 120.546 53.9422 120.986 54.2089C121.439 54.4756 121.919 54.6089 122.426 54.6089C122.946 54.6089 123.433 54.4822 123.886 54.2289C124.339 53.9622 124.699 53.5889 124.966 53.1089C125.233 52.6156 125.366 52.0289 125.366 51.3489ZM141.221 51.1089C141.221 51.5089 141.194 51.8689 141.141 52.1889H133.041C133.107 52.9889 133.387 53.6156 133.881 54.0689C134.374 54.5222 134.981 54.7489 135.701 54.7489C136.741 54.7489 137.481 54.3022 137.921 53.4089H140.941C140.621 54.4756 140.007 55.3556 139.101 56.0489C138.194 56.7289 137.081 57.0689 135.761 57.0689C134.694 57.0689 133.734 56.8356 132.881 56.3689C132.041 55.8889 131.381 55.2156 130.901 54.3489C130.434 53.4822 130.201 52.4822 130.201 51.3489C130.201 50.2022 130.434 49.1956 130.901 48.3289C131.367 47.4622 132.021 46.7956 132.861 46.3289C133.701 45.8622 134.667 45.6289 135.761 45.6289C136.814 45.6289 137.754 45.8556 138.581 46.3089C139.421 46.7622 140.067 47.4089 140.521 48.2489C140.987 49.0756 141.221 50.0289 141.221 51.1089ZM138.321 50.3089C138.307 49.5889 138.047 49.0156 137.541 48.5889C137.034 48.1489 136.414 47.9289 135.681 47.9289C134.987 47.9289 134.401 48.1422 133.921 48.5689C133.454 48.9822 133.167 49.5622 133.061 50.3089H138.321ZM66.331 75.6489C67.691 75.6489 68.7843 76.0689 69.611 76.9089C70.451 77.7356 70.871 78.8956 70.871 80.3889V86.8889H68.071V80.7689C68.071 79.9022 67.851 79.2422 67.411 78.7889C66.971 78.3222 66.371 78.0889 65.611 78.0889C64.851 78.0889 64.2443 78.3222 63.791 78.7889C63.351 79.2422 63.131 79.9022 63.131 80.7689V86.8889H60.331V80.7689C60.331 79.9022 60.111 79.2422 59.671 78.7889C59.231 78.3222 58.631 78.0889 57.871 78.0889C57.0976 78.0889 56.4843 78.3222 56.031 78.7889C55.591 79.2422 55.371 79.9022 55.371 80.7689V86.8889H52.571V75.8089H55.371V77.1489C55.731 76.6822 56.191 76.3156 56.751 76.0489C57.3243 75.7822 57.951 75.6489 58.631 75.6489C59.4976 75.6489 60.271 75.8356 60.951 76.2089C61.631 76.5689 62.1576 77.0889 62.531 77.7689C62.891 77.1289 63.411 76.6156 64.091 76.2289C64.7843 75.8422 65.531 75.6489 66.331 75.6489ZM83.828 81.1089C83.828 81.5089 83.8013 81.8689 83.748 82.1889H75.648C75.7147 82.9889 75.9947 83.6156 76.488 84.0689C76.9813 84.5222 77.588 84.7489 78.308 84.7489C79.348 84.7489 80.088 84.3022 80.528 83.4089H83.548C83.228 84.4756 82.6147 85.3556 81.708 86.0489C80.8013 86.7289 79.688 87.0689 78.368 87.0689C77.3013 87.0689 76.3413 86.8356 75.488 86.3689C74.648 85.8889 73.988 85.2156 73.508 84.3489C73.0413 83.4822 72.808 82.4822 72.808 81.3489C72.808 80.2022 73.0413 79.1956 73.508 78.3289C73.9747 77.4622 74.628 76.7956 75.468 76.3289C76.308 75.8622 77.2747 75.6289 78.368 75.6289C79.4213 75.6289 80.3613 75.8556 81.188 76.3089C82.028 76.7622 82.6747 77.4089 83.128 78.2489C83.5947 79.0756 83.828 80.0289 83.828 81.1089ZM80.928 80.3089C80.9147 79.5889 80.6547 79.0156 80.148 78.5889C79.6413 78.1489 79.0213 77.9289 78.288 77.9289C77.5947 77.9289 77.008 78.1422 76.528 78.5689C76.0613 78.9822 75.7747 79.5622 75.668 80.3089H80.928ZM99.6317 75.6489C100.992 75.6489 102.085 76.0689 102.912 76.9089C103.752 77.7356 104.172 78.8956 104.172 80.3889V86.8889H101.372V80.7689C101.372 79.9022 101.152 79.2422 100.712 78.7889C100.272 78.3222 99.6717 78.0889 98.9117 78.0889C98.1517 78.0889 97.5451 78.3222 97.0917 78.7889C96.6517 79.2422 96.4317 79.9022 96.4317 80.7689V86.8889H93.6317V80.7689C93.6317 79.9022 93.4117 79.2422 92.9717 78.7889C92.5317 78.3222 91.9317 78.0889 91.1717 78.0889C90.3984 78.0889 89.7851 78.3222 89.3317 78.7889C88.8917 79.2422 88.6717 79.9022 88.6717 80.7689V86.8889H85.8717V75.8089H88.6717V77.1489C89.0317 76.6822 89.4917 76.3156 90.0517 76.0489C90.6251 75.7822 91.2517 75.6489 91.9317 75.6489C92.7984 75.6489 93.5717 75.8356 94.2517 76.2089C94.9317 76.5689 95.4584 77.0889 95.8317 77.7689C96.1917 77.1289 96.7117 76.6156 97.3917 76.2289C98.0851 75.8422 98.8317 75.6489 99.6317 75.6489ZM109.629 77.4289C109.989 76.8956 110.482 76.4622 111.109 76.1289C111.749 75.7956 112.475 75.6289 113.289 75.6289C114.235 75.6289 115.089 75.8622 115.849 76.3289C116.622 76.7956 117.229 77.4622 117.669 78.3289C118.122 79.1822 118.349 80.1756 118.349 81.3089C118.349 82.4422 118.122 83.4489 117.669 84.3289C117.229 85.1956 116.622 85.8689 115.849 86.3489C115.089 86.8289 114.235 87.0689 113.289 87.0689C112.462 87.0689 111.735 86.9089 111.109 86.5889C110.495 86.2556 110.002 85.8289 109.629 85.3089V86.8889H106.829V72.0889H109.629V77.4289ZM115.489 81.3089C115.489 80.6422 115.349 80.0689 115.069 79.5889C114.802 79.0956 114.442 78.7222 113.989 78.4689C113.549 78.2156 113.069 78.0889 112.549 78.0889C112.042 78.0889 111.562 78.2222 111.109 78.4889C110.669 78.7422 110.309 79.1156 110.029 79.6089C109.762 80.1022 109.629 80.6822 109.629 81.3489C109.629 82.0156 109.762 82.5956 110.029 83.0889C110.309 83.5822 110.669 83.9622 111.109 84.2289C111.562 84.4822 112.042 84.6089 112.549 84.6089C113.069 84.6089 113.549 84.4756 113.989 84.2089C114.442 83.9422 114.802 83.5622 115.069 83.0689C115.349 82.5756 115.489 81.9889 115.489 81.3089ZM123.183 77.5289C123.543 76.9422 124.01 76.4822 124.583 76.1489C125.17 75.8156 125.837 75.6489 126.583 75.6489V78.5889H125.843C124.963 78.5889 124.297 78.7956 123.843 79.2089C123.403 79.6222 123.183 80.3422 123.183 81.3689V86.8889H120.383V75.8089H123.183V77.5289ZM133.389 87.0689C132.323 87.0689 131.363 86.8356 130.509 86.3689C129.656 85.8889 128.983 85.2156 128.489 84.3489C128.009 83.4822 127.769 82.4822 127.769 81.3489C127.769 80.2156 128.016 79.2156 128.509 78.3489C129.016 77.4822 129.703 76.8156 130.569 76.3489C131.436 75.8689 132.403 75.6289 133.469 75.6289C134.536 75.6289 135.503 75.8689 136.369 76.3489C137.236 76.8156 137.916 77.4822 138.409 78.3489C138.916 79.2156 139.169 80.2156 139.169 81.3489C139.169 82.4822 138.909 83.4822 138.389 84.3489C137.883 85.2156 137.189 85.8889 136.309 86.3689C135.443 86.8356 134.469 87.0689 133.389 87.0689ZM133.389 84.6289C133.896 84.6289 134.369 84.5089 134.809 84.2689C135.263 84.0156 135.623 83.6422 135.889 83.1489C136.156 82.6556 136.289 82.0556 136.289 81.3489C136.289 80.2956 136.009 79.4889 135.449 78.9289C134.903 78.3556 134.229 78.0689 133.429 78.0689C132.629 78.0689 131.956 78.3556 131.409 78.9289C130.876 79.4889 130.609 80.2956 130.609 81.3489C130.609 82.4022 130.869 83.2156 131.389 83.7889C131.923 84.3489 132.589 84.6289 133.389 84.6289ZM145.463 87.0689C144.557 87.0689 143.743 86.9089 143.023 86.5889C142.303 86.2556 141.73 85.8089 141.303 85.2489C140.89 84.6889 140.663 84.0689 140.623 83.3889H143.443C143.497 83.8156 143.703 84.1689 144.063 84.4489C144.437 84.7289 144.897 84.8689 145.443 84.8689C145.977 84.8689 146.39 84.7622 146.683 84.5489C146.99 84.3356 147.143 84.0622 147.143 83.7289C147.143 83.3689 146.957 83.1022 146.583 82.9289C146.223 82.7422 145.643 82.5422 144.843 82.3289C144.017 82.1289 143.337 81.9222 142.803 81.7089C142.283 81.4956 141.83 81.1689 141.443 80.7289C141.07 80.2889 140.883 79.6956 140.883 78.9489C140.883 78.3356 141.057 77.7756 141.403 77.2689C141.763 76.7622 142.27 76.3622 142.923 76.0689C143.59 75.7756 144.37 75.6289 145.263 75.6289C146.583 75.6289 147.637 75.9622 148.423 76.6289C149.21 77.2822 149.643 78.1689 149.723 79.2889H147.043C147.003 78.8489 146.817 78.5022 146.483 78.2489C146.163 77.9822 145.73 77.8489 145.183 77.8489C144.677 77.8489 144.283 77.9422 144.003 78.1289C143.737 78.3156 143.603 78.5756 143.603 78.9089C143.603 79.2822 143.79 79.5689 144.163 79.7689C144.537 79.9556 145.117 80.1489 145.903 80.3489C146.703 80.5489 147.363 80.7556 147.883 80.9689C148.403 81.1822 148.85 81.5156 149.223 81.9689C149.61 82.4089 149.81 82.9956 149.823 83.7289C149.823 84.3689 149.643 84.9422 149.283 85.4489C148.937 85.9556 148.43 86.3556 147.763 86.6489C147.11 86.9289 146.343 87.0689 145.463 87.0689Z" fill="white"/>
<path d="M102.028 171.586V182.056H99.9281V177.601H95.4431V182.056H93.3431V171.586H95.4431V175.891H99.9281V171.586H102.028ZM107.785 182.191C106.985 182.191 106.265 182.016 105.625 181.666C104.985 181.306 104.48 180.801 104.11 180.151C103.75 179.501 103.57 178.751 103.57 177.901C103.57 177.051 103.755 176.301 104.125 175.651C104.505 175.001 105.02 174.501 105.67 174.151C106.32 173.791 107.045 173.611 107.845 173.611C108.645 173.611 109.37 173.791 110.02 174.151C110.67 174.501 111.18 175.001 111.55 175.651C111.93 176.301 112.12 177.051 112.12 177.901C112.12 178.751 111.925 179.501 111.535 180.151C111.155 180.801 110.635 181.306 109.975 181.666C109.325 182.016 108.595 182.191 107.785 182.191ZM107.785 180.361C108.165 180.361 108.52 180.271 108.85 180.091C109.19 179.901 109.46 179.621 109.66 179.251C109.86 178.881 109.96 178.431 109.96 177.901C109.96 177.111 109.75 176.506 109.33 176.086C108.92 175.656 108.415 175.441 107.815 175.441C107.215 175.441 106.71 175.656 106.3 176.086C105.9 176.506 105.7 177.111 105.7 177.901C105.7 178.691 105.895 179.301 106.285 179.731C106.685 180.151 107.185 180.361 107.785 180.361ZM123.98 173.626C125 173.626 125.82 173.941 126.44 174.571C127.07 175.191 127.385 176.061 127.385 177.181V182.056H125.285V177.466C125.285 176.816 125.12 176.321 124.79 175.981C124.46 175.631 124.01 175.456 123.44 175.456C122.87 175.456 122.415 175.631 122.075 175.981C121.745 176.321 121.58 176.816 121.58 177.466V182.056H119.48V177.466C119.48 176.816 119.315 176.321 118.985 175.981C118.655 175.631 118.205 175.456 117.635 175.456C117.055 175.456 116.595 175.631 116.255 175.981C115.925 176.321 115.76 176.816 115.76 177.466V182.056H113.66V173.746H115.76V174.751C116.03 174.401 116.375 174.126 116.795 173.926C117.225 173.726 117.695 173.626 118.205 173.626C118.855 173.626 119.435 173.766 119.945 174.046C120.455 174.316 120.85 174.706 121.13 175.216C121.4 174.736 121.79 174.351 122.3 174.061C122.82 173.771 123.38 173.626 123.98 173.626ZM137.103 177.721C137.103 178.021 137.083 178.291 137.043 178.531H130.968C131.018 179.131 131.228 179.601 131.598 179.941C131.968 180.281 132.423 180.451 132.963 180.451C133.743 180.451 134.298 180.116 134.628 179.446H136.893C136.653 180.246 136.193 180.906 135.513 181.426C134.833 181.936 133.998 182.191 133.008 182.191C132.208 182.191 131.488 182.016 130.848 181.666C130.218 181.306 129.723 180.801 129.363 180.151C129.013 179.501 128.838 178.751 128.838 177.901C128.838 177.041 129.013 176.286 129.363 175.636C129.713 174.986 130.203 174.486 130.833 174.136C131.463 173.786 132.188 173.611 133.008 173.611C133.798 173.611 134.503 173.781 135.123 174.121C135.753 174.461 136.238 174.946 136.578 175.576C136.928 176.196 137.103 176.911 137.103 177.721ZM134.928 177.121C134.918 176.581 134.723 176.151 134.343 175.831C133.963 175.501 133.498 175.336 132.948 175.336C132.428 175.336 131.988 175.496 131.628 175.816C131.278 176.126 131.063 176.561 130.983 177.121H134.928ZM143.241 173.626C144.231 173.626 145.031 173.941 145.641 174.571C146.251 175.191 146.556 176.061 146.556 177.181V182.056H144.456V177.466C144.456 176.806 144.291 176.301 143.961 175.951C143.631 175.591 143.181 175.411 142.611 175.411C142.031 175.411 141.571 175.591 141.231 175.951C140.901 176.301 140.736 176.806 140.736 177.466V182.056H138.636V173.746H140.736V174.781C141.016 174.421 141.371 174.141 141.801 173.941C142.241 173.731 142.721 173.626 143.241 173.626ZM151.733 182.191C151.053 182.191 150.443 182.071 149.903 181.831C149.363 181.581 148.933 181.246 148.613 180.826C148.303 180.406 148.133 179.941 148.103 179.431H150.218C150.258 179.751 150.413 180.016 150.683 180.226C150.963 180.436 151.308 180.541 151.718 180.541C152.118 180.541 152.428 180.461 152.648 180.301C152.878 180.141 152.993 179.936 152.993 179.686C152.993 179.416 152.853 179.216 152.573 179.086C152.303 178.946 151.868 178.796 151.268 178.636C150.648 178.486 150.138 178.331 149.738 178.171C149.348 178.011 149.008 177.766 148.718 177.436C148.438 177.106 148.298 176.661 148.298 176.101C148.298 175.641 148.428 175.221 148.688 174.841C148.958 174.461 149.338 174.161 149.828 173.941C150.328 173.721 150.913 173.611 151.583 173.611C152.573 173.611 153.363 173.861 153.953 174.361C154.543 174.851 154.868 175.516 154.928 176.356H152.918C152.888 176.026 152.748 175.766 152.498 175.576C152.258 175.376 151.933 175.276 151.523 175.276C151.143 175.276 150.848 175.346 150.638 175.486C150.438 175.626 150.338 175.821 150.338 176.071C150.338 176.351 150.478 176.566 150.758 176.716C151.038 176.856 151.473 177.001 152.063 177.151C152.663 177.301 153.158 177.456 153.548 177.616C153.938 177.776 154.273 178.026 154.553 178.366C154.843 178.696 154.993 179.136 155.003 179.686C155.003 180.166 154.868 180.596 154.598 180.976C154.338 181.356 153.958 181.656 153.458 181.876C152.968 182.086 152.393 182.191 151.733 182.191Z" fill="white"/>
<path d="M102.028 171.586V182.056H99.9281V177.601H95.4431V182.056H93.3431V171.586H95.4431V175.891H99.9281V171.586H102.028ZM107.785 182.191C106.985 182.191 106.265 182.016 105.625 181.666C104.985 181.306 104.48 180.801 104.11 180.151C103.75 179.501 103.57 178.751 103.57 177.901C103.57 177.051 103.755 176.301 104.125 175.651C104.505 175.001 105.02 174.501 105.67 174.151C106.32 173.791 107.045 173.611 107.845 173.611C108.645 173.611 109.37 173.791 110.02 174.151C110.67 174.501 111.18 175.001 111.55 175.651C111.93 176.301 112.12 177.051 112.12 177.901C112.12 178.751 111.925 179.501 111.535 180.151C111.155 180.801 110.635 181.306 109.975 181.666C109.325 182.016 108.595 182.191 107.785 182.191ZM107.785 180.361C108.165 180.361 108.52 180.271 108.85 180.091C109.19 179.901 109.46 179.621 109.66 179.251C109.86 178.881 109.96 178.431 109.96 177.901C109.96 177.111 109.75 176.506 109.33 176.086C108.92 175.656 108.415 175.441 107.815 175.441C107.215 175.441 106.71 175.656 106.3 176.086C105.9 176.506 105.7 177.111 105.7 177.901C105.7 178.691 105.895 179.301 106.285 179.731C106.685 180.151 107.185 180.361 107.785 180.361ZM123.98 173.626C125 173.626 125.82 173.941 126.44 174.571C127.07 175.191 127.385 176.061 127.385 177.181V182.056H125.285V177.466C125.285 176.816 125.12 176.321 124.79 175.981C124.46 175.631 124.01 175.456 123.44 175.456C122.87 175.456 122.415 175.631 122.075 175.981C121.745 176.321 121.58 176.816 121.58 177.466V182.056H119.48V177.466C119.48 176.816 119.315 176.321 118.985 175.981C118.655 175.631 118.205 175.456 117.635 175.456C117.055 175.456 116.595 175.631 116.255 175.981C115.925 176.321 115.76 176.816 115.76 177.466V182.056H113.66V173.746H115.76V174.751C116.03 174.401 116.375 174.126 116.795 173.926C117.225 173.726 117.695 173.626 118.205 173.626C118.855 173.626 119.435 173.766 119.945 174.046C120.455 174.316 120.85 174.706 121.13 175.216C121.4 174.736 121.79 174.351 122.3 174.061C122.82 173.771 123.38 173.626 123.98 173.626ZM137.103 177.721C137.103 178.021 137.083 178.291 137.043 178.531H130.968C131.018 179.131 131.228 179.601 131.598 179.941C131.968 180.281 132.423 180.451 132.963 180.451C133.743 180.451 134.298 180.116 134.628 179.446H136.893C136.653 180.246 136.193 180.906 135.513 181.426C134.833 181.936 133.998 182.191 133.008 182.191C132.208 182.191 131.488 182.016 130.848 181.666C130.218 181.306 129.723 180.801 129.363 180.151C129.013 179.501 128.838 178.751 128.838 177.901C128.838 177.041 129.013 176.286 129.363 175.636C129.713 174.986 130.203 174.486 130.833 174.136C131.463 173.786 132.188 173.611 133.008 173.611C133.798 173.611 134.503 173.781 135.123 174.121C135.753 174.461 136.238 174.946 136.578 175.576C136.928 176.196 137.103 176.911 137.103 177.721ZM134.928 177.121C134.918 176.581 134.723 176.151 134.343 175.831C133.963 175.501 133.498 175.336 132.948 175.336C132.428 175.336 131.988 175.496 131.628 175.816C131.278 176.126 131.063 176.561 130.983 177.121H134.928ZM143.241 173.626C144.231 173.626 145.031 173.941 145.641 174.571C146.251 175.191 146.556 176.061 146.556 177.181V182.056H144.456V177.466C144.456 176.806 144.291 176.301 143.961 175.951C143.631 175.591 143.181 175.411 142.611 175.411C142.031 175.411 141.571 175.591 141.231 175.951C140.901 176.301 140.736 176.806 140.736 177.466V182.056H138.636V173.746H140.736V174.781C141.016 174.421 141.371 174.141 141.801 173.941C142.241 173.731 142.721 173.626 143.241 173.626ZM151.733 182.191C151.053 182.191 150.443 182.071 149.903 181.831C149.363 181.581 148.933 181.246 148.613 180.826C148.303 180.406 148.133 179.941 148.103 179.431H150.218C150.258 179.751 150.413 180.016 150.683 180.226C150.963 180.436 151.308 180.541 151.718 180.541C152.118 180.541 152.428 180.461 152.648 180.301C152.878 180.141 152.993 179.936 152.993 179.686C152.993 179.416 152.853 179.216 152.573 179.086C152.303 178.946 151.868 178.796 151.268 178.636C150.648 178.486 150.138 178.331 149.738 178.171C149.348 178.011 149.008 177.766 148.718 177.436C148.438 177.106 148.298 176.661 148.298 176.101C148.298 175.641 148.428 175.221 148.688 174.841C148.958 174.461 149.338 174.161 149.828 173.941C150.328 173.721 150.913 173.611 151.583 173.611C152.573 173.611 153.363 173.861 153.953 174.361C154.543 174.851 154.868 175.516 154.928 176.356H152.918C152.888 176.026 152.748 175.766 152.498 175.576C152.258 175.376 151.933 175.276 151.523 175.276C151.143 175.276 150.848 175.346 150.638 175.486C150.438 175.626 150.338 175.821 150.338 176.071C150.338 176.351 150.478 176.566 150.758 176.716C151.038 176.856 151.473 177.001 152.063 177.151C152.663 177.301 153.158 177.456 153.548 177.616C153.938 177.776 154.273 178.026 154.553 178.366C154.843 178.696 154.993 179.136 155.003 179.686C155.003 180.166 154.868 180.596 154.598 180.976C154.338 181.356 153.958 181.656 153.458 181.876C152.968 182.086 152.393 182.191 151.733 182.191Z" fill="white"/>
<path d="M104.323 258.141V268.611H102.223V261.801L99.418 268.611H97.828L95.008 261.801V268.611H92.908V258.141H95.293L98.623 265.926L101.953 258.141H104.323ZM114.244 260.301V268.611H112.129V267.561C111.859 267.921 111.504 268.206 111.064 268.416C110.634 268.616 110.164 268.716 109.654 268.716C109.004 268.716 108.429 268.581 107.929 268.311C107.429 268.031 107.034 267.626 106.744 267.096C106.464 266.556 106.324 265.916 106.324 265.176V260.301H108.424V264.876C108.424 265.536 108.589 266.046 108.919 266.406C109.249 266.756 109.699 266.931 110.269 266.931C110.849 266.931 111.304 266.756 111.634 266.406C111.964 266.046 112.129 265.536 112.129 264.876V260.301H114.244ZM118.416 257.511V268.611H116.316V257.511H118.416ZM125.171 260.181C125.801 260.181 126.361 260.321 126.851 260.601C127.341 260.871 127.721 261.276 127.991 261.816C128.271 262.346 128.411 262.986 128.411 263.736V268.611H126.311V264.021C126.311 263.361 126.146 262.856 125.816 262.506C125.486 262.146 125.036 261.966 124.466 261.966C123.886 261.966 123.426 262.146 123.086 262.506C122.756 262.856 122.591 263.361 122.591 264.021V268.611H120.491V257.511H122.591V261.336C122.861 260.976 123.221 260.696 123.671 260.496C124.121 260.286 124.621 260.181 125.171 260.181ZM138.133 264.276C138.133 264.576 138.113 264.846 138.073 265.086H131.998C132.048 265.686 132.258 266.156 132.628 266.496C132.998 266.836 133.453 267.006 133.993 267.006C134.773 267.006 135.328 266.671 135.658 266.001H137.923C137.683 266.801 137.223 267.461 136.543 267.981C135.863 268.491 135.028 268.746 134.038 268.746C133.238 268.746 132.518 268.571 131.878 268.221C131.248 267.861 130.753 267.356 130.393 266.706C130.043 266.056 129.868 265.306 129.868 264.456C129.868 263.596 130.043 262.841 130.393 262.191C130.743 261.541 131.233 261.041 131.863 260.691C132.493 260.341 133.218 260.166 134.038 260.166C134.828 260.166 135.533 260.336 136.153 260.676C136.783 261.016 137.268 261.501 137.608 262.131C137.958 262.751 138.133 263.466 138.133 264.276ZM135.958 263.676C135.948 263.136 135.753 262.706 135.373 262.386C134.993 262.056 134.528 261.891 133.978 261.891C133.458 261.891 133.018 262.051 132.658 262.371C132.308 262.681 132.093 263.116 132.013 263.676H135.958ZM141.766 261.591C142.036 261.151 142.386 260.806 142.816 260.556C143.256 260.306 143.756 260.181 144.316 260.181V262.386H143.761C143.101 262.386 142.601 262.541 142.261 262.851C141.931 263.161 141.766 263.701 141.766 264.471V268.611H139.666V260.301H141.766V261.591ZM153.455 264.276C153.455 264.576 153.435 264.846 153.395 265.086H147.32C147.37 265.686 147.58 266.156 147.95 266.496C148.32 266.836 148.775 267.006 149.315 267.006C150.095 267.006 150.65 266.671 150.98 266.001H153.245C153.005 266.801 152.545 267.461 151.865 267.981C151.185 268.491 150.35 268.746 149.36 268.746C148.56 268.746 147.84 268.571 147.2 268.221C146.57 267.861 146.075 267.356 145.715 266.706C145.365 266.056 145.19 265.306 145.19 264.456C145.19 263.596 145.365 262.841 145.715 262.191C146.065 261.541 146.555 261.041 147.185 260.691C147.815 260.341 148.54 260.166 149.36 260.166C150.15 260.166 150.855 260.336 151.475 260.676C152.105 261.016 152.59 261.501 152.93 262.131C153.28 262.751 153.455 263.466 153.455 264.276ZM151.28 263.676C151.27 263.136 151.075 262.706 150.695 262.386C150.315 262.056 149.85 261.891 149.3 261.891C148.78 261.891 148.34 262.051 147.98 262.371C147.63 262.681 147.415 263.116 147.335 263.676H151.28ZM158.168 268.746C157.488 268.746 156.878 268.626 156.338 268.386C155.798 268.136 155.368 267.801 155.048 267.381C154.738 266.961 154.568 266.496 154.538 265.986H156.653C156.693 266.306 156.848 266.571 157.118 266.781C157.398 266.991 157.743 267.096 158.153 267.096C158.553 267.096 158.863 267.016 159.083 266.856C159.313 266.696 159.428 266.491 159.428 266.241C159.428 265.971 159.288 265.771 159.008 265.641C158.738 265.501 158.303 265.351 157.703 265.191C157.083 265.041 156.573 264.886 156.173 264.726C155.783 264.566 155.443 264.321 155.153 263.991C154.873 263.661 154.733 263.216 154.733 262.656C154.733 262.196 154.863 261.776 155.123 261.396C155.393 261.016 155.773 260.716 156.263 260.496C156.763 260.276 157.348 260.166 158.018 260.166C159.008 260.166 159.798 260.416 160.388 260.916C160.978 261.406 161.303 262.071 161.363 262.911H159.353C159.323 262.581 159.183 262.321 158.933 262.131C158.693 261.931 158.368 261.831 157.958 261.831C157.578 261.831 157.283 261.901 157.073 262.041C156.873 262.181 156.773 262.376 156.773 262.626C156.773 262.906 156.913 263.121 157.193 263.271C157.473 263.411 157.908 263.556 158.498 263.706C159.098 263.856 159.593 264.011 159.983 264.171C160.373 264.331 160.708 264.581 160.988 264.921C161.278 265.251 161.428 265.691 161.438 266.241C161.438 266.721 161.303 267.151 161.033 267.531C160.773 267.911 160.393 268.211 159.893 268.431C159.403 268.641 158.828 268.746 158.168 268.746Z" fill="white"/>
<line x1="59.5" y1="108.722" x2="59.5" y2="277.611" stroke="white"/>
<line x1="59" y1="176.833" x2="86" y2="176.833" stroke="white"/>
<line x1="59" y1="263.389" x2="86" y2="263.389" stroke="white"/>
<defs>
<filter id="filter0_b_918_417" x="-5" y="-5" width="228" height="333" filterUnits="userSpaceOnUse" color-interpolation-filters="sRGB">
<feFlood flood-opacity="0" result="BackgroundImageFix"/>
<feGaussianBlur in="BackgroundImageFix" stdDeviation="2.5"/>
<feComposite in2="SourceAlpha" operator="in" result="effect1_backgroundBlur_918_417"/>
<feBlend mode="normal" in="SourceGraphic" in2="effect1_backgroundBlur_918_417" result="shape"/>
</filter>
</defs>
</svg>
