<svg width="218" height="323" viewBox="0 0 218 323" fill="none" xmlns="http://www.w3.org/2000/svg">
<g filter="url(#filter0_b_928_100)">
<path d="M0 35C0 15.67 15.67 0 35 0H183C202.33 0 218 15.67 218 35V161.5V288C218 307.33 202.33 323 183 323H35C15.67 323 0 307.33 0 288V35Z" fill="#2D2D2D"/>
</g>
<path d="M70.4673 42.9289V45.1889H66.7473V56.8889H63.9473V45.1889H60.2273V42.9289H70.4673ZM77.4303 57.0689C76.3636 57.0689 75.4036 56.8356 74.5503 56.3689C73.6969 55.8889 73.0236 55.2156 72.5303 54.3489C72.0503 53.4822 71.8103 52.4822 71.8103 51.3489C71.8103 50.2156 72.0569 49.2156 72.5503 48.3489C73.0569 47.4822 73.7436 46.8156 74.6103 46.3489C75.4769 45.8689 76.4436 45.6289 77.5103 45.6289C78.5769 45.6289 79.5436 45.8689 80.4103 46.3489C81.2769 46.8156 81.9569 47.4822 82.4503 48.3489C82.9569 49.2156 83.2103 50.2156 83.2103 51.3489C83.2103 52.4822 82.9503 53.4822 82.4303 54.3489C81.9236 55.2156 81.2303 55.8889 80.3503 56.3689C79.4836 56.8356 78.5103 57.0689 77.4303 57.0689ZM77.4303 54.6289C77.9369 54.6289 78.4103 54.5089 78.8503 54.2689C79.3036 54.0156 79.6636 53.6422 79.9303 53.1489C80.1969 52.6556 80.3303 52.0556 80.3303 51.3489C80.3303 50.2956 80.0503 49.4889 79.4903 48.9289C78.9436 48.3556 78.2703 48.0689 77.4703 48.0689C76.6703 48.0689 75.9969 48.3556 75.4503 48.9289C74.9169 49.4889 74.6503 50.2956 74.6503 51.3489C74.6503 52.4022 74.9103 53.2156 75.4303 53.7889C75.9636 54.3489 76.6303 54.6289 77.4303 54.6289ZM88.5242 48.1089V53.4689C88.5242 53.8422 88.6108 54.1156 88.7842 54.2889C88.9708 54.4489 89.2775 54.5289 89.7042 54.5289H91.0042V56.8889H89.2442C86.8842 56.8889 85.7042 55.7422 85.7042 53.4489V48.1089H84.3842V45.8089H85.7042V43.0689H88.5242V45.8089H91.0042V48.1089H88.5242ZM92.2981 51.3089C92.2981 50.1889 92.5181 49.1956 92.9581 48.3289C93.4114 47.4622 94.0181 46.7956 94.7781 46.3289C95.5514 45.8622 96.4114 45.6289 97.3581 45.6289C98.1847 45.6289 98.9047 45.7956 99.5181 46.1289C100.145 46.4622 100.645 46.8822 101.018 47.3889V45.8089H103.838V56.8889H101.018V55.2689C100.658 55.7889 100.158 56.2222 99.5181 56.5689C98.8914 56.9022 98.1647 57.0689 97.3381 57.0689C96.4047 57.0689 95.5514 56.8289 94.7781 56.3489C94.0181 55.8689 93.4114 55.1956 92.9581 54.3289C92.5181 53.4489 92.2981 52.4422 92.2981 51.3089ZM101.018 51.3489C101.018 50.6689 100.885 50.0889 100.618 49.6089C100.351 49.1156 99.9914 48.7422 99.5381 48.4889C99.0847 48.2222 98.5981 48.0889 98.0781 48.0889C97.5581 48.0889 97.0781 48.2156 96.6381 48.4689C96.1981 48.7222 95.8381 49.0956 95.5581 49.5889C95.2914 50.0689 95.1581 50.6422 95.1581 51.3089C95.1581 51.9756 95.2914 52.5622 95.5581 53.0689C95.8381 53.5622 96.1981 53.9422 96.6381 54.2089C97.0914 54.4756 97.5714 54.6089 98.0781 54.6089C98.5981 54.6089 99.0847 54.4822 99.5381 54.2289C99.9914 53.9622 100.351 53.5889 100.618 53.1089C100.885 52.6156 101.018 52.0289 101.018 51.3489ZM109.373 42.0889V56.8889H106.573V42.0889H109.373ZM116.185 51.3089C116.185 50.1889 116.405 49.1956 116.845 48.3289C117.298 47.4622 117.911 46.7956 118.685 46.3289C119.458 45.8622 120.318 45.6289 121.265 45.6289C121.985 45.6289 122.671 45.7889 123.325 46.1089C123.978 46.4156 124.498 46.8289 124.885 47.3489V42.0889H127.725V56.8889H124.885V55.2489C124.538 55.7956 124.051 56.2356 123.425 56.5689C122.798 56.9022 122.071 57.0689 121.245 57.0689C120.311 57.0689 119.458 56.8289 118.685 56.3489C117.911 55.8689 117.298 55.1956 116.845 54.3289C116.405 53.4489 116.185 52.4422 116.185 51.3089ZM124.905 51.3489C124.905 50.6689 124.771 50.0889 124.505 49.6089C124.238 49.1156 123.878 48.7422 123.425 48.4889C122.971 48.2222 122.485 48.0889 121.965 48.0889C121.445 48.0889 120.965 48.2156 120.525 48.4689C120.085 48.7222 119.725 49.0956 119.445 49.5889C119.178 50.0689 119.045 50.6422 119.045 51.3089C119.045 51.9756 119.178 52.5622 119.445 53.0689C119.725 53.5622 120.085 53.9422 120.525 54.2089C120.978 54.4756 121.458 54.6089 121.965 54.6089C122.485 54.6089 122.971 54.4822 123.425 54.2289C123.878 53.9622 124.238 53.5889 124.505 53.1089C124.771 52.6156 124.905 52.0289 124.905 51.3489ZM140.759 51.1089C140.759 51.5089 140.733 51.8689 140.679 52.1889H132.579C132.646 52.9889 132.926 53.6156 133.419 54.0689C133.913 54.5222 134.519 54.7489 135.239 54.7489C136.279 54.7489 137.019 54.3022 137.459 53.4089H140.479C140.159 54.4756 139.546 55.3556 138.639 56.0489C137.733 56.7289 136.619 57.0689 135.299 57.0689C134.233 57.0689 133.273 56.8356 132.419 56.3689C131.579 55.8889 130.919 55.2156 130.439 54.3489C129.973 53.4822 129.739 52.4822 129.739 51.3489C129.739 50.2022 129.973 49.1956 130.439 48.3289C130.906 47.4622 131.559 46.7956 132.399 46.3289C133.239 45.8622 134.206 45.6289 135.299 45.6289C136.353 45.6289 137.293 45.8556 138.119 46.3089C138.959 46.7622 139.606 47.4089 140.059 48.2489C140.526 49.0756 140.759 50.0289 140.759 51.1089ZM137.859 50.3089C137.846 49.5889 137.586 49.0156 137.079 48.5889C136.573 48.1489 135.953 47.9289 135.219 47.9289C134.526 47.9289 133.939 48.1422 133.459 48.5689C132.993 48.9822 132.706 49.5622 132.599 50.3089H137.859ZM65.8699 75.6489C67.2299 75.6489 68.3232 76.0689 69.1499 76.9089C69.9899 77.7356 70.4099 78.8956 70.4099 80.3889V86.8889H67.6099V80.7689C67.6099 79.9022 67.3899 79.2422 66.9499 78.7889C66.5099 78.3222 65.9099 78.0889 65.1499 78.0889C64.3899 78.0889 63.7832 78.3222 63.3299 78.7889C62.8899 79.2422 62.6699 79.9022 62.6699 80.7689V86.8889H59.8699V80.7689C59.8699 79.9022 59.6499 79.2422 59.2099 78.7889C58.7699 78.3222 58.1699 78.0889 57.4099 78.0889C56.6365 78.0889 56.0232 78.3222 55.5699 78.7889C55.1299 79.2422 54.9099 79.9022 54.9099 80.7689V86.8889H52.1099V75.8089H54.9099V77.1489C55.2699 76.6822 55.7299 76.3156 56.2899 76.0489C56.8632 75.7822 57.4899 75.6489 58.1699 75.6489C59.0365 75.6489 59.8099 75.8356 60.4899 76.2089C61.1699 76.5689 61.6965 77.0889 62.0699 77.7689C62.4299 77.1289 62.9499 76.6156 63.6299 76.2289C64.3232 75.8422 65.0699 75.6489 65.8699 75.6489ZM83.3669 81.1089C83.3669 81.5089 83.3402 81.8689 83.2869 82.1889H75.1869C75.2536 82.9889 75.5336 83.6156 76.0269 84.0689C76.5202 84.5222 77.1269 84.7489 77.8469 84.7489C78.8869 84.7489 79.6269 84.3022 80.0669 83.4089H83.0869C82.7669 84.4756 82.1536 85.3556 81.2469 86.0489C80.3402 86.7289 79.2269 87.0689 77.9069 87.0689C76.8402 87.0689 75.8802 86.8356 75.0269 86.3689C74.1869 85.8889 73.5269 85.2156 73.0469 84.3489C72.5802 83.4822 72.3469 82.4822 72.3469 81.3489C72.3469 80.2022 72.5802 79.1956 73.0469 78.3289C73.5136 77.4622 74.1669 76.7956 75.0069 76.3289C75.8469 75.8622 76.8136 75.6289 77.9069 75.6289C78.9602 75.6289 79.9002 75.8556 80.7269 76.3089C81.5669 76.7622 82.2136 77.4089 82.6669 78.2489C83.1336 79.0756 83.3669 80.0289 83.3669 81.1089ZM80.4669 80.3089C80.4536 79.5889 80.1936 79.0156 79.6869 78.5889C79.1802 78.1489 78.5602 77.9289 77.8269 77.9289C77.1336 77.9289 76.5469 78.1422 76.0669 78.5689C75.6002 78.9822 75.3136 79.5622 75.2069 80.3089H80.4669ZM99.1707 75.6489C100.531 75.6489 101.624 76.0689 102.451 76.9089C103.291 77.7356 103.711 78.8956 103.711 80.3889V86.8889H100.911V80.7689C100.911 79.9022 100.691 79.2422 100.251 78.7889C99.8107 78.3222 99.2107 78.0889 98.4507 78.0889C97.6907 78.0889 97.084 78.3222 96.6307 78.7889C96.1907 79.2422 95.9707 79.9022 95.9707 80.7689V86.8889H93.1707V80.7689C93.1707 79.9022 92.9507 79.2422 92.5107 78.7889C92.0707 78.3222 91.4707 78.0889 90.7107 78.0889C89.9373 78.0889 89.324 78.3222 88.8707 78.7889C88.4307 79.2422 88.2107 79.9022 88.2107 80.7689V86.8889H85.4107V75.8089H88.2107V77.1489C88.5707 76.6822 89.0307 76.3156 89.5907 76.0489C90.164 75.7822 90.7907 75.6489 91.4707 75.6489C92.3373 75.6489 93.1107 75.8356 93.7907 76.2089C94.4707 76.5689 94.9973 77.0889 95.3707 77.7689C95.7307 77.1289 96.2507 76.6156 96.9307 76.2289C97.624 75.8422 98.3707 75.6489 99.1707 75.6489ZM109.168 77.4289C109.528 76.8956 110.021 76.4622 110.648 76.1289C111.288 75.7956 112.014 75.6289 112.828 75.6289C113.774 75.6289 114.628 75.8622 115.388 76.3289C116.161 76.7956 116.768 77.4622 117.208 78.3289C117.661 79.1822 117.888 80.1756 117.888 81.3089C117.888 82.4422 117.661 83.4489 117.208 84.3289C116.768 85.1956 116.161 85.8689 115.388 86.3489C114.628 86.8289 113.774 87.0689 112.828 87.0689C112.001 87.0689 111.274 86.9089 110.648 86.5889C110.034 86.2556 109.541 85.8289 109.168 85.3089V86.8889H106.368V72.0889H109.168V77.4289ZM115.028 81.3089C115.028 80.6422 114.888 80.0689 114.608 79.5889C114.341 79.0956 113.981 78.7222 113.528 78.4689C113.088 78.2156 112.608 78.0889 112.088 78.0889C111.581 78.0889 111.101 78.2222 110.648 78.4889C110.208 78.7422 109.848 79.1156 109.568 79.6089C109.301 80.1022 109.168 80.6822 109.168 81.3489C109.168 82.0156 109.301 82.5956 109.568 83.0889C109.848 83.5822 110.208 83.9622 110.648 84.2289C111.101 84.4822 111.581 84.6089 112.088 84.6089C112.608 84.6089 113.088 84.4756 113.528 84.2089C113.981 83.9422 114.341 83.5622 114.608 83.0689C114.888 82.5756 115.028 81.9889 115.028 81.3089ZM122.722 77.5289C123.082 76.9422 123.549 76.4822 124.122 76.1489C124.709 75.8156 125.376 75.6489 126.122 75.6489V78.5889H125.382C124.502 78.5889 123.836 78.7956 123.382 79.2089C122.942 79.6222 122.722 80.3422 122.722 81.3689V86.8889H119.922V75.8089H122.722V77.5289ZM132.928 87.0689C131.862 87.0689 130.902 86.8356 130.048 86.3689C129.195 85.8889 128.522 85.2156 128.028 84.3489C127.548 83.4822 127.308 82.4822 127.308 81.3489C127.308 80.2156 127.555 79.2156 128.048 78.3489C128.555 77.4822 129.242 76.8156 130.108 76.3489C130.975 75.8689 131.942 75.6289 133.008 75.6289C134.075 75.6289 135.042 75.8689 135.908 76.3489C136.775 76.8156 137.455 77.4822 137.948 78.3489C138.455 79.2156 138.708 80.2156 138.708 81.3489C138.708 82.4822 138.448 83.4822 137.928 84.3489C137.422 85.2156 136.728 85.8889 135.848 86.3689C134.982 86.8356 134.008 87.0689 132.928 87.0689ZM132.928 84.6289C133.435 84.6289 133.908 84.5089 134.348 84.2689C134.802 84.0156 135.162 83.6422 135.428 83.1489C135.695 82.6556 135.828 82.0556 135.828 81.3489C135.828 80.2956 135.548 79.4889 134.988 78.9289C134.442 78.3556 133.768 78.0689 132.968 78.0689C132.168 78.0689 131.495 78.3556 130.948 78.9289C130.415 79.4889 130.148 80.2956 130.148 81.3489C130.148 82.4022 130.408 83.2156 130.928 83.7889C131.462 84.3489 132.128 84.6289 132.928 84.6289ZM145.002 87.0689C144.096 87.0689 143.282 86.9089 142.562 86.5889C141.842 86.2556 141.269 85.8089 140.842 85.2489C140.429 84.6889 140.202 84.0689 140.162 83.3889H142.982C143.036 83.8156 143.242 84.1689 143.602 84.4489C143.976 84.7289 144.436 84.8689 144.982 84.8689C145.516 84.8689 145.929 84.7622 146.222 84.5489C146.529 84.3356 146.682 84.0622 146.682 83.7289C146.682 83.3689 146.496 83.1022 146.122 82.9289C145.762 82.7422 145.182 82.5422 144.382 82.3289C143.556 82.1289 142.876 81.9222 142.342 81.7089C141.822 81.4956 141.369 81.1689 140.982 80.7289C140.609 80.2889 140.422 79.6956 140.422 78.9489C140.422 78.3356 140.596 77.7756 140.942 77.2689C141.302 76.7622 141.809 76.3622 142.462 76.0689C143.129 75.7756 143.909 75.6289 144.802 75.6289C146.122 75.6289 147.176 75.9622 147.962 76.6289C148.749 77.2822 149.182 78.1689 149.262 79.2889H146.582C146.542 78.8489 146.356 78.5022 146.022 78.2489C145.702 77.9822 145.269 77.8489 144.722 77.8489C144.216 77.8489 143.822 77.9422 143.542 78.1289C143.276 78.3156 143.142 78.5756 143.142 78.9089C143.142 79.2822 143.329 79.5689 143.702 79.7689C144.076 79.9556 144.656 80.1489 145.442 80.3489C146.242 80.5489 146.902 80.7556 147.422 80.9689C147.942 81.1822 148.389 81.5156 148.762 81.9689C149.149 82.4089 149.349 82.9956 149.362 83.7289C149.362 84.3689 149.182 84.9422 148.822 85.4489C148.476 85.9556 147.969 86.3556 147.302 86.6489C146.649 86.9289 145.882 87.0689 145.002 87.0689Z" fill="white"/>
<path d="M101.462 171.586V182.056H99.3619V177.601H94.8769V182.056H92.7769V171.586H94.8769V175.891H99.3619V171.586H101.462ZM107.219 182.191C106.419 182.191 105.699 182.016 105.059 181.666C104.419 181.306 103.914 180.801 103.544 180.151C103.184 179.501 103.004 178.751 103.004 177.901C103.004 177.051 103.189 176.301 103.559 175.651C103.939 175.001 104.454 174.501 105.104 174.151C105.754 173.791 106.479 173.611 107.279 173.611C108.079 173.611 108.804 173.791 109.454 174.151C110.104 174.501 110.614 175.001 110.984 175.651C111.364 176.301 111.554 177.051 111.554 177.901C111.554 178.751 111.359 179.501 110.969 180.151C110.589 180.801 110.069 181.306 109.409 181.666C108.759 182.016 108.029 182.191 107.219 182.191ZM107.219 180.361C107.599 180.361 107.954 180.271 108.284 180.091C108.624 179.901 108.894 179.621 109.094 179.251C109.294 178.881 109.394 178.431 109.394 177.901C109.394 177.111 109.184 176.506 108.764 176.086C108.354 175.656 107.849 175.441 107.249 175.441C106.649 175.441 106.144 175.656 105.734 176.086C105.334 176.506 105.134 177.111 105.134 177.901C105.134 178.691 105.329 179.301 105.719 179.731C106.119 180.151 106.619 180.361 107.219 180.361ZM123.414 173.626C124.434 173.626 125.254 173.941 125.874 174.571C126.504 175.191 126.819 176.061 126.819 177.181V182.056H124.719V177.466C124.719 176.816 124.554 176.321 124.224 175.981C123.894 175.631 123.444 175.456 122.874 175.456C122.304 175.456 121.849 175.631 121.509 175.981C121.179 176.321 121.014 176.816 121.014 177.466V182.056H118.914V177.466C118.914 176.816 118.749 176.321 118.419 175.981C118.089 175.631 117.639 175.456 117.069 175.456C116.489 175.456 116.029 175.631 115.689 175.981C115.359 176.321 115.194 176.816 115.194 177.466V182.056H113.094V173.746H115.194V174.751C115.464 174.401 115.809 174.126 116.229 173.926C116.659 173.726 117.129 173.626 117.639 173.626C118.289 173.626 118.869 173.766 119.379 174.046C119.889 174.316 120.284 174.706 120.564 175.216C120.834 174.736 121.224 174.351 121.734 174.061C122.254 173.771 122.814 173.626 123.414 173.626ZM136.537 177.721C136.537 178.021 136.517 178.291 136.477 178.531H130.402C130.452 179.131 130.662 179.601 131.032 179.941C131.402 180.281 131.857 180.451 132.397 180.451C133.177 180.451 133.732 180.116 134.062 179.446H136.327C136.087 180.246 135.627 180.906 134.947 181.426C134.267 181.936 133.432 182.191 132.442 182.191C131.642 182.191 130.922 182.016 130.282 181.666C129.652 181.306 129.157 180.801 128.797 180.151C128.447 179.501 128.272 178.751 128.272 177.901C128.272 177.041 128.447 176.286 128.797 175.636C129.147 174.986 129.637 174.486 130.267 174.136C130.897 173.786 131.622 173.611 132.442 173.611C133.232 173.611 133.937 173.781 134.557 174.121C135.187 174.461 135.672 174.946 136.012 175.576C136.362 176.196 136.537 176.911 136.537 177.721ZM134.362 177.121C134.352 176.581 134.157 176.151 133.777 175.831C133.397 175.501 132.932 175.336 132.382 175.336C131.862 175.336 131.422 175.496 131.062 175.816C130.712 176.126 130.497 176.561 130.417 177.121H134.362ZM142.675 173.626C143.665 173.626 144.465 173.941 145.075 174.571C145.685 175.191 145.99 176.061 145.99 177.181V182.056H143.89V177.466C143.89 176.806 143.725 176.301 143.395 175.951C143.065 175.591 142.615 175.411 142.045 175.411C141.465 175.411 141.005 175.591 140.665 175.951C140.335 176.301 140.17 176.806 140.17 177.466V182.056H138.07V173.746H140.17V174.781C140.45 174.421 140.805 174.141 141.235 173.941C141.675 173.731 142.155 173.626 142.675 173.626ZM151.167 182.191C150.487 182.191 149.877 182.071 149.337 181.831C148.797 181.581 148.367 181.246 148.047 180.826C147.737 180.406 147.567 179.941 147.537 179.431H149.652C149.692 179.751 149.847 180.016 150.117 180.226C150.397 180.436 150.742 180.541 151.152 180.541C151.552 180.541 151.862 180.461 152.082 180.301C152.312 180.141 152.427 179.936 152.427 179.686C152.427 179.416 152.287 179.216 152.007 179.086C151.737 178.946 151.302 178.796 150.702 178.636C150.082 178.486 149.572 178.331 149.172 178.171C148.782 178.011 148.442 177.766 148.152 177.436C147.872 177.106 147.732 176.661 147.732 176.101C147.732 175.641 147.862 175.221 148.122 174.841C148.392 174.461 148.772 174.161 149.262 173.941C149.762 173.721 150.347 173.611 151.017 173.611C152.007 173.611 152.797 173.861 153.387 174.361C153.977 174.851 154.302 175.516 154.362 176.356H152.352C152.322 176.026 152.182 175.766 151.932 175.576C151.692 175.376 151.367 175.276 150.957 175.276C150.577 175.276 150.282 175.346 150.072 175.486C149.872 175.626 149.772 175.821 149.772 176.071C149.772 176.351 149.912 176.566 150.192 176.716C150.472 176.856 150.907 177.001 151.497 177.151C152.097 177.301 152.592 177.456 152.982 177.616C153.372 177.776 153.707 178.026 153.987 178.366C154.277 178.696 154.427 179.136 154.437 179.686C154.437 180.166 154.302 180.596 154.032 180.976C153.772 181.356 153.392 181.656 152.892 181.876C152.402 182.086 151.827 182.191 151.167 182.191Z" fill="white"/>
<path d="M101.462 171.586V182.056H99.3619V177.601H94.8769V182.056H92.7769V171.586H94.8769V175.891H99.3619V171.586H101.462ZM107.219 182.191C106.419 182.191 105.699 182.016 105.059 181.666C104.419 181.306 103.914 180.801 103.544 180.151C103.184 179.501 103.004 178.751 103.004 177.901C103.004 177.051 103.189 176.301 103.559 175.651C103.939 175.001 104.454 174.501 105.104 174.151C105.754 173.791 106.479 173.611 107.279 173.611C108.079 173.611 108.804 173.791 109.454 174.151C110.104 174.501 110.614 175.001 110.984 175.651C111.364 176.301 111.554 177.051 111.554 177.901C111.554 178.751 111.359 179.501 110.969 180.151C110.589 180.801 110.069 181.306 109.409 181.666C108.759 182.016 108.029 182.191 107.219 182.191ZM107.219 180.361C107.599 180.361 107.954 180.271 108.284 180.091C108.624 179.901 108.894 179.621 109.094 179.251C109.294 178.881 109.394 178.431 109.394 177.901C109.394 177.111 109.184 176.506 108.764 176.086C108.354 175.656 107.849 175.441 107.249 175.441C106.649 175.441 106.144 175.656 105.734 176.086C105.334 176.506 105.134 177.111 105.134 177.901C105.134 178.691 105.329 179.301 105.719 179.731C106.119 180.151 106.619 180.361 107.219 180.361ZM123.414 173.626C124.434 173.626 125.254 173.941 125.874 174.571C126.504 175.191 126.819 176.061 126.819 177.181V182.056H124.719V177.466C124.719 176.816 124.554 176.321 124.224 175.981C123.894 175.631 123.444 175.456 122.874 175.456C122.304 175.456 121.849 175.631 121.509 175.981C121.179 176.321 121.014 176.816 121.014 177.466V182.056H118.914V177.466C118.914 176.816 118.749 176.321 118.419 175.981C118.089 175.631 117.639 175.456 117.069 175.456C116.489 175.456 116.029 175.631 115.689 175.981C115.359 176.321 115.194 176.816 115.194 177.466V182.056H113.094V173.746H115.194V174.751C115.464 174.401 115.809 174.126 116.229 173.926C116.659 173.726 117.129 173.626 117.639 173.626C118.289 173.626 118.869 173.766 119.379 174.046C119.889 174.316 120.284 174.706 120.564 175.216C120.834 174.736 121.224 174.351 121.734 174.061C122.254 173.771 122.814 173.626 123.414 173.626ZM136.537 177.721C136.537 178.021 136.517 178.291 136.477 178.531H130.402C130.452 179.131 130.662 179.601 131.032 179.941C131.402 180.281 131.857 180.451 132.397 180.451C133.177 180.451 133.732 180.116 134.062 179.446H136.327C136.087 180.246 135.627 180.906 134.947 181.426C134.267 181.936 133.432 182.191 132.442 182.191C131.642 182.191 130.922 182.016 130.282 181.666C129.652 181.306 129.157 180.801 128.797 180.151C128.447 179.501 128.272 178.751 128.272 177.901C128.272 177.041 128.447 176.286 128.797 175.636C129.147 174.986 129.637 174.486 130.267 174.136C130.897 173.786 131.622 173.611 132.442 173.611C133.232 173.611 133.937 173.781 134.557 174.121C135.187 174.461 135.672 174.946 136.012 175.576C136.362 176.196 136.537 176.911 136.537 177.721ZM134.362 177.121C134.352 176.581 134.157 176.151 133.777 175.831C133.397 175.501 132.932 175.336 132.382 175.336C131.862 175.336 131.422 175.496 131.062 175.816C130.712 176.126 130.497 176.561 130.417 177.121H134.362ZM142.675 173.626C143.665 173.626 144.465 173.941 145.075 174.571C145.685 175.191 145.99 176.061 145.99 177.181V182.056H143.89V177.466C143.89 176.806 143.725 176.301 143.395 175.951C143.065 175.591 142.615 175.411 142.045 175.411C141.465 175.411 141.005 175.591 140.665 175.951C140.335 176.301 140.17 176.806 140.17 177.466V182.056H138.07V173.746H140.17V174.781C140.45 174.421 140.805 174.141 141.235 173.941C141.675 173.731 142.155 173.626 142.675 173.626ZM151.167 182.191C150.487 182.191 149.877 182.071 149.337 181.831C148.797 181.581 148.367 181.246 148.047 180.826C147.737 180.406 147.567 179.941 147.537 179.431H149.652C149.692 179.751 149.847 180.016 150.117 180.226C150.397 180.436 150.742 180.541 151.152 180.541C151.552 180.541 151.862 180.461 152.082 180.301C152.312 180.141 152.427 179.936 152.427 179.686C152.427 179.416 152.287 179.216 152.007 179.086C151.737 178.946 151.302 178.796 150.702 178.636C150.082 178.486 149.572 178.331 149.172 178.171C148.782 178.011 148.442 177.766 148.152 177.436C147.872 177.106 147.732 176.661 147.732 176.101C147.732 175.641 147.862 175.221 148.122 174.841C148.392 174.461 148.772 174.161 149.262 173.941C149.762 173.721 150.347 173.611 151.017 173.611C152.007 173.611 152.797 173.861 153.387 174.361C153.977 174.851 154.302 175.516 154.362 176.356H152.352C152.322 176.026 152.182 175.766 151.932 175.576C151.692 175.376 151.367 175.276 150.957 175.276C150.577 175.276 150.282 175.346 150.072 175.486C149.872 175.626 149.772 175.821 149.772 176.071C149.772 176.351 149.912 176.566 150.192 176.716C150.472 176.856 150.907 177.001 151.497 177.151C152.097 177.301 152.592 177.456 152.982 177.616C153.372 177.776 153.707 178.026 153.987 178.366C154.277 178.696 154.427 179.136 154.437 179.686C154.437 180.166 154.302 180.596 154.032 180.976C153.772 181.356 153.392 181.656 152.892 181.876C152.402 182.086 151.827 182.191 151.167 182.191Z" fill="white"/>
<path d="M103.743 258.141V268.611H101.643V261.801L98.8382 268.611H97.2482L94.4282 261.801V268.611H92.3282V258.141H94.7132L98.0432 265.926L101.373 258.141H103.743ZM113.664 260.301V268.611H111.549V267.561C111.279 267.921 110.924 268.206 110.484 268.416C110.054 268.616 109.584 268.716 109.074 268.716C108.424 268.716 107.849 268.581 107.349 268.311C106.849 268.031 106.454 267.626 106.164 267.096C105.884 266.556 105.744 265.916 105.744 265.176V260.301H107.844V264.876C107.844 265.536 108.009 266.046 108.339 266.406C108.669 266.756 109.119 266.931 109.689 266.931C110.269 266.931 110.724 266.756 111.054 266.406C111.384 266.046 111.549 265.536 111.549 264.876V260.301H113.664ZM117.836 257.511V268.611H115.736V257.511H117.836ZM124.591 260.181C125.221 260.181 125.781 260.321 126.271 260.601C126.761 260.871 127.141 261.276 127.411 261.816C127.691 262.346 127.831 262.986 127.831 263.736V268.611H125.731V264.021C125.731 263.361 125.566 262.856 125.236 262.506C124.906 262.146 124.456 261.966 123.886 261.966C123.306 261.966 122.846 262.146 122.506 262.506C122.176 262.856 122.011 263.361 122.011 264.021V268.611H119.911V257.511H122.011V261.336C122.281 260.976 122.641 260.696 123.091 260.496C123.541 260.286 124.041 260.181 124.591 260.181ZM137.553 264.276C137.553 264.576 137.533 264.846 137.493 265.086H131.418C131.468 265.686 131.678 266.156 132.048 266.496C132.418 266.836 132.873 267.006 133.413 267.006C134.193 267.006 134.748 266.671 135.078 266.001H137.343C137.103 266.801 136.643 267.461 135.963 267.981C135.283 268.491 134.448 268.746 133.458 268.746C132.658 268.746 131.938 268.571 131.298 268.221C130.668 267.861 130.173 267.356 129.813 266.706C129.463 266.056 129.288 265.306 129.288 264.456C129.288 263.596 129.463 262.841 129.813 262.191C130.163 261.541 130.653 261.041 131.283 260.691C131.913 260.341 132.638 260.166 133.458 260.166C134.248 260.166 134.953 260.336 135.573 260.676C136.203 261.016 136.688 261.501 137.028 262.131C137.378 262.751 137.553 263.466 137.553 264.276ZM135.378 263.676C135.368 263.136 135.173 262.706 134.793 262.386C134.413 262.056 133.948 261.891 133.398 261.891C132.878 261.891 132.438 262.051 132.078 262.371C131.728 262.681 131.513 263.116 131.433 263.676H135.378ZM141.186 261.591C141.456 261.151 141.806 260.806 142.236 260.556C142.676 260.306 143.176 260.181 143.736 260.181V262.386H143.181C142.521 262.386 142.021 262.541 141.681 262.851C141.351 263.161 141.186 263.701 141.186 264.471V268.611H139.086V260.301H141.186V261.591ZM152.875 264.276C152.875 264.576 152.855 264.846 152.815 265.086H146.74C146.79 265.686 147 266.156 147.37 266.496C147.74 266.836 148.195 267.006 148.735 267.006C149.515 267.006 150.07 266.671 150.4 266.001H152.665C152.425 266.801 151.965 267.461 151.285 267.981C150.605 268.491 149.77 268.746 148.78 268.746C147.98 268.746 147.26 268.571 146.62 268.221C145.99 267.861 145.495 267.356 145.135 266.706C144.785 266.056 144.61 265.306 144.61 264.456C144.61 263.596 144.785 262.841 145.135 262.191C145.485 261.541 145.975 261.041 146.605 260.691C147.235 260.341 147.96 260.166 148.78 260.166C149.57 260.166 150.275 260.336 150.895 260.676C151.525 261.016 152.01 261.501 152.35 262.131C152.7 262.751 152.875 263.466 152.875 264.276ZM150.7 263.676C150.69 263.136 150.495 262.706 150.115 262.386C149.735 262.056 149.27 261.891 148.72 261.891C148.2 261.891 147.76 262.051 147.4 262.371C147.05 262.681 146.835 263.116 146.755 263.676H150.7ZM157.588 268.746C156.908 268.746 156.298 268.626 155.758 268.386C155.218 268.136 154.788 267.801 154.468 267.381C154.158 266.961 153.988 266.496 153.958 265.986H156.073C156.113 266.306 156.268 266.571 156.538 266.781C156.818 266.991 157.163 267.096 157.573 267.096C157.973 267.096 158.283 267.016 158.503 266.856C158.733 266.696 158.848 266.491 158.848 266.241C158.848 265.971 158.708 265.771 158.428 265.641C158.158 265.501 157.723 265.351 157.123 265.191C156.503 265.041 155.993 264.886 155.593 264.726C155.203 264.566 154.863 264.321 154.573 263.991C154.293 263.661 154.153 263.216 154.153 262.656C154.153 262.196 154.283 261.776 154.543 261.396C154.813 261.016 155.193 260.716 155.683 260.496C156.183 260.276 156.768 260.166 157.438 260.166C158.428 260.166 159.218 260.416 159.808 260.916C160.398 261.406 160.723 262.071 160.783 262.911H158.773C158.743 262.581 158.603 262.321 158.353 262.131C158.113 261.931 157.788 261.831 157.378 261.831C156.998 261.831 156.703 261.901 156.493 262.041C156.293 262.181 156.193 262.376 156.193 262.626C156.193 262.906 156.333 263.121 156.613 263.271C156.893 263.411 157.328 263.556 157.918 263.706C158.518 263.856 159.013 264.011 159.403 264.171C159.793 264.331 160.128 264.581 160.408 264.921C160.698 265.251 160.848 265.691 160.858 266.241C160.858 266.721 160.723 267.151 160.453 267.531C160.193 267.911 159.813 268.211 159.313 268.431C158.823 268.641 158.248 268.746 157.588 268.746Z" fill="white"/>
<line x1="59.2306" y1="108.722" x2="59.2306" y2="277.611" stroke="white"/>
<line x1="58.7306" y1="176.833" x2="85.6073" y2="176.833" stroke="white"/>
<line x1="58.7306" y1="263.389" x2="85.6073" y2="263.389" stroke="white"/>
<defs>
<filter id="filter0_b_928_100" x="-5" y="-5" width="228" height="333" filterUnits="userSpaceOnUse" color-interpolation-filters="sRGB">
<feFlood flood-opacity="0" result="BackgroundImageFix"/>
<feGaussianBlur in="BackgroundImageFix" stdDeviation="2.5"/>
<feComposite in2="SourceAlpha" operator="in" result="effect1_backgroundBlur_928_100"/>
<feBlend mode="normal" in="SourceGraphic" in2="effect1_backgroundBlur_928_100" result="shape"/>
</filter>
</defs>
</svg>
