<svg width="48" height="48" viewBox="0 0 48 48" fill="none" xmlns="http://www.w3.org/2000/svg">
<path d="M32 42V38C32 35.8783 31.1571 33.8434 29.6569 32.3431C28.1566 30.8429 26.1217 30 24 30H12C9.87827 30 7.84344 30.8429 6.34315 32.3431C4.84285 33.8434 4 35.8783 4 38V42" stroke="white" stroke-width="3" stroke-linecap="round" stroke-linejoin="round"/>
<path d="M18 22C22.4183 22 26 18.4183 26 14C26 9.58172 22.4183 6 18 6C13.5817 6 10 9.58172 10 14C10 18.4183 13.5817 22 18 22Z" stroke="white" stroke-width="3" stroke-linecap="round" stroke-linejoin="round"/>
<path d="M38 16V28" stroke="white" stroke-width="3" stroke-linecap="round" stroke-linejoin="round"/>
<path d="M44 22H32" stroke="white" stroke-width="3" stroke-linecap="round" stroke-linejoin="round"/>
</svg>
