<svg width="21" height="24" viewBox="0 0 21 24" fill="none" xmlns="http://www.w3.org/2000/svg">
<path d="M14 3H4.375C3.91087 3 3.46575 3.21071 3.13756 3.58579C2.80937 3.96086 2.625 4.46957 2.625 5V19C2.625 19.5304 2.80937 20.0391 3.13756 20.4142C3.46575 20.7893 3.91087 21 4.375 21H16.625C17.0891 21 17.5342 20.7893 17.8624 20.4142C18.1906 20.0391 18.375 19.5304 18.375 19V8L14 3Z" stroke="white" stroke-width="2" stroke-linecap="round" stroke-linejoin="round"/>
<path d="M13.125 3V7C13.125 7.53043 13.3094 8.03914 13.6376 8.41421C13.9658 8.78929 14.4109 9 14.875 9H18.375" stroke="white" stroke-width="2" stroke-linecap="round" stroke-linejoin="round"/>
</svg>
