<svg width="28" height="32" viewBox="0 0 28 32" fill="none" xmlns="http://www.w3.org/2000/svg">
<path d="M23.0311 14.566H4.62889C3.17699 14.566 2 15.8163 2 17.3585V27.1321C2 28.6743 3.17699 29.9245 4.62889 29.9245H23.0311C24.483 29.9245 25.66 28.6743 25.66 27.1321V17.3585C25.66 15.8163 24.483 14.566 23.0311 14.566Z" stroke="#015B40" stroke-width="3" stroke-linecap="round" stroke-linejoin="round"/>
<path d="M7.25775 14.566V8.98113C7.25775 7.12962 7.95018 5.35394 9.18271 4.04473C10.4152 2.73551 12.0869 2 13.83 2C15.573 2 17.2447 2.73551 18.4772 4.04473C19.7098 5.35394 20.4022 7.12962 20.4022 8.98113V14.566" stroke="#015B40" stroke-width="3" stroke-linecap="round" stroke-linejoin="round"/>
</svg>
